<svg xmlns="http://www.w3.org/2000/svg" width="1200" height="760" viewBox="0 0 1200 760" role="img" aria-label="Figure 2 | Each MNC Is Choosing a Different Route to Third Place">
  <defs>
    <linearGradient id="sheet" x1="0" y1="0" x2="1" y2="1">
      <stop offset="0%" stop-color="#ffffff"/>
      <stop offset="54%" stop-color="#f8fbfb"/>
      <stop offset="100%" stop-color="#fff8f1"/>
    </linearGradient>
    <filter id="softShadow" x="-20%" y="-20%" width="140%" height="140%">
      <feDropShadow dx="0" dy="12" stdDeviation="14" flood-color="#12313c" flood-opacity=".12"/>
    </filter>
    <filter id="cardShadow" x="-20%" y="-20%" width="140%" height="140%">
      <feDropShadow dx="0" dy="10" stdDeviation="10" flood-color="#12313c" flood-opacity=".10"/>
    </filter>
    <radialGradient id="softBlue" cx="50%" cy="45%" r="70%">
      <stop offset="0%" stop-color="#dff3f7"/>
      <stop offset="100%" stop-color="#f8fcfd"/>
    </radialGradient>
    <radialGradient id="softCoral" cx="50%" cy="45%" r="70%">
      <stop offset="0%" stop-color="#ffe4df"/>
      <stop offset="100%" stop-color="#fff8f5"/>
    </radialGradient>
  </defs>
  <style>
    .title{font:800 34px Inter,Arial,sans-serif;fill:#122f3a}
    .eyebrow{font:800 18px Inter,Arial,sans-serif;letter-spacing:.12em;fill:#9e5b28;text-transform:uppercase}
    .label{font:800 25px Inter,Arial,sans-serif;fill:#12313c}
    .body{font:700 22px Inter,Arial,sans-serif;fill:#243943}
    .note{font:700 17px Inter,Arial,sans-serif;fill:#58707b}
    .small{font:700 16px Inter,Arial,sans-serif;fill:#607680}
    .axis{font:800 20px Inter,Arial,sans-serif;fill:#265f73}
    .brand{font:900 31px Inter,Arial,sans-serif;fill:#12313c}
    .caption{font:800 14px Inter,Arial,sans-serif;letter-spacing:.08em;fill:#8aa0aa;text-transform:uppercase}
  </style>
  <rect width="1200" height="760" fill="#eef5f4"/>
  <path d="M58 646 C245 565 338 610 505 654 C693 704 833 607 1140 652" fill="none" stroke="#cde5e8" stroke-width="5" opacity=".7"/>
  <path d="M66 130 C224 62 353 87 477 126" fill="none" stroke="#e7f1f2" stroke-width="4" opacity=".9"/>
  <circle cx="1010" cy="110" r="80" fill="#eef7f3" opacity=".8"/>
  <rect x="34" y="34" width="1132" height="692" rx="24" fill="url(#sheet)" stroke="#cddbe0" stroke-width="2" filter="url(#softShadow)"/>
  <text x="64" y="86" class="title">Figure 2 | Each MNC Is Choosing a Different Route to Third Place</text>
  <g transform="translate(64 152)">
      <rect x="0" y="0" width="194" height="470" rx="22" fill="#fff" stroke="#d2dde2" filter="url(#cardShadow)"/>
      <text x="97" y="45" class="brand" text-anchor="middle" fill="#2b75bb">Pfizer</text>
      <rect x="18" y="74" width="158" height="88" rx="14" fill="#2b75bb" opacity=".13" stroke="#2b75bb"/>
      <text x="97" y="104" class="body" text-anchor="middle">Berobenatide</text>
      <text x="97" y="192" class="eyebrow" text-anchor="middle">ROUTE</text>
      <text x="97" y="222" class="note" text-anchor="middle">Long-acting GLP-1</text>
<text x="97" y="243" class="note" text-anchor="middle">analog</text>
      <g transform="translate(44 254) scale(.55)">
        <circle cx="96" cy="158" r="82" fill="#2b75bb" opacity=".12"/>
        <g><rect x="54" y="42" width="86" height="84" rx="12" fill="#fff" stroke="#2b75bb" stroke-width="5"/><path d="M54 68h86" stroke="#2b75bb" stroke-width="5"/><path d="M75 31v26M119 31v26" stroke="#2b75bb" stroke-width="8" stroke-linecap="round"/><circle cx="78" cy="91" r="5" fill="#2b75bb"/><circle cx="99" cy="91" r="5" fill="#2b75bb"/><circle cx="120" cy="91" r="5" fill="#2b75bb"/></g>
      </g>
      <text x="97" y="398" class="body" text-anchor="middle">Monthly injection</text>
<text x="97" y="422" class="body" text-anchor="middle">window</text>
      <text x="97" y="446" class="small" text-anchor="middle">Lower treatment</text>
<text x="97" y="468" class="small" text-anchor="middle">burden</text>
    </g>
<g transform="translate(282 152)">
      <rect x="0" y="0" width="194" height="470" rx="22" fill="#fff" stroke="#d2dde2" filter="url(#cardShadow)"/>
      <text x="97" y="45" class="brand" text-anchor="middle" fill="#6b5fb5">Roche</text>
      <rect x="18" y="74" width="158" height="88" rx="14" fill="#6b5fb5" opacity=".13" stroke="#6b5fb5"/>
      <text x="97" y="104" class="body" text-anchor="middle">Petrelintide +</text>
<text x="97" y="127" class="body" text-anchor="middle">Enicepatide</text>
      <text x="97" y="192" class="eyebrow" text-anchor="middle">ROUTE</text>
      <text x="97" y="222" class="note" text-anchor="middle">Amylin analog +</text>
<text x="97" y="243" class="note" text-anchor="middle">GLP-1/GIP dual</text>
<text x="97" y="264" class="note" text-anchor="middle">agonist</text>
      <g transform="translate(44 254) scale(.55)">
        <circle cx="96" cy="158" r="82" fill="#6b5fb5" opacity=".12"/>
        <g><path d="M96 39 c35 20 35 78 0 104 c-28-16-44-37-36-67 c5-19 20-29 36-37z" fill="#fff" stroke="#6b5fb5" stroke-width="6"/><path d="M95 42 c-12 24 15 40 5 67" fill="none" stroke="#6b5fb5" stroke-width="5" opacity=".45"/></g>
      </g>
      <text x="97" y="398" class="body" text-anchor="middle">Tolerability plus</text>
<text x="97" y="422" class="body" text-anchor="middle">efficacy</text>
      <text x="97" y="446" class="small" text-anchor="middle">Combination</text>
<text x="97" y="468" class="small" text-anchor="middle">optionality</text>
    </g>
<g transform="translate(500 152)">
      <rect x="0" y="0" width="194" height="470" rx="22" fill="#fff" stroke="#d2dde2" filter="url(#cardShadow)"/>
      <text x="97" y="45" class="brand" text-anchor="middle" fill="#d59d35">AstraZeneca</text>
      <rect x="18" y="74" width="158" height="88" rx="14" fill="#d59d35" opacity=".13" stroke="#d59d35"/>
      <text x="97" y="104" class="body" text-anchor="middle">Ecnoglutide</text>
      <text x="97" y="192" class="eyebrow" text-anchor="middle">ROUTE</text>
      <text x="97" y="222" class="note" text-anchor="middle">Oral</text>
<text x="97" y="243" class="note" text-anchor="middle">small-molecule</text>
<text x="97" y="264" class="note" text-anchor="middle">GLP-1</text>
      <g transform="translate(44 254) scale(.55)">
        <circle cx="96" cy="158" r="82" fill="#d59d35" opacity=".12"/>
        <g><path d="M96 130 c-39-33-54-55-46-78 c8-22 34-23 46-4 c12-19 38-18 46 4 c8 23-7 45-46 78z" fill="#fff" stroke="#d59d35" stroke-width="6"/><path d="M46 92 h29 l11-22 22 45 12-23 h28" fill="none" stroke="#d59d35" stroke-width="5" stroke-linejoin="round"/></g>
      </g>
      <text x="97" y="398" class="body" text-anchor="middle">CRM integration</text>
      <text x="97" y="446" class="small" text-anchor="middle">Ecosystem fit</text>
    </g>
<g transform="translate(718 152)">
      <rect x="0" y="0" width="194" height="470" rx="22" fill="#fff" stroke="#d2dde2" filter="url(#cardShadow)"/>
      <text x="97" y="45" class="brand" text-anchor="middle" fill="#3c8f62">Regeneron</text>
      <rect x="18" y="74" width="158" height="88" rx="14" fill="#3c8f62" opacity=".13" stroke="#3c8f62"/>
      <text x="97" y="104" class="body" text-anchor="middle">Trevogrumab</text>
      <text x="97" y="192" class="eyebrow" text-anchor="middle">ROUTE</text>
      <text x="97" y="222" class="note" text-anchor="middle">Anti-myostatin</text>
<text x="97" y="243" class="note" text-anchor="middle">antibody</text>
      <g transform="translate(44 254) scale(.55)">
        <circle cx="96" cy="158" r="82" fill="#3c8f62" opacity=".12"/>
        <g><path d="M47 108 c23-56 57-77 98-52 c-18 8-26 21-23 39 c-18-15-35-12-49 10 c-11 17-16 24-26 3z" fill="#fff" stroke="#3c8f62" stroke-width="6"/><path d="M85 72 c20 3 31 10 39 23" fill="none" stroke="#3c8f62" stroke-width="5" opacity=".55"/></g>
      </g>
      <text x="97" y="398" class="body" text-anchor="middle">Preserve muscle</text>
<text x="97" y="422" class="body" text-anchor="middle">and improve weight</text>
      <text x="97" y="446" class="small" text-anchor="middle">Healthier weight</text>
<text x="97" y="468" class="small" text-anchor="middle">loss</text>
    </g>
<g transform="translate(936 152)">
      <rect x="0" y="0" width="194" height="470" rx="22" fill="#fff" stroke="#d2dde2" filter="url(#cardShadow)"/>
      <text x="97" y="45" class="brand" text-anchor="middle" fill="#2d8c95">Asia / China</text>
      <rect x="18" y="74" width="158" height="88" rx="14" fill="#2d8c95" opacity=".13" stroke="#2d8c95"/>
      <text x="97" y="104" class="body" text-anchor="middle">Mazdutide /</text>
<text x="97" y="127" class="body" text-anchor="middle">Rybubatide /</text>
<text x="97" y="150" class="body" text-anchor="middle">Ecnoglutide</text>
      <text x="97" y="192" class="eyebrow" text-anchor="middle">ROUTE</text>
      <text x="97" y="222" class="note" text-anchor="middle">Multi-target and</text>
<text x="97" y="243" class="note" text-anchor="middle">oral routes</text>
      <g transform="translate(44 254) scale(.55)">
        <circle cx="96" cy="158" r="82" fill="#2d8c95" opacity=".12"/>
        <g><circle cx="96" cy="86" r="48" fill="#fff" stroke="#2d8c95" stroke-width="6"/><path d="M52 86h88M96 38c22 25 22 72 0 96M96 38c-22 25-22 72 0 96" fill="none" stroke="#2d8c95" stroke-width="5"/></g>
      </g>
      <text x="97" y="398" class="body" text-anchor="middle">Faster clinical</text>
<text x="97" y="422" class="body" text-anchor="middle">iteration</text>
      <text x="97" y="446" class="small" text-anchor="middle">Local speed + global</text>
<text x="97" y="468" class="small" text-anchor="middle">ambition</text>
    </g>
</svg>
