<svg xmlns="http://www.w3.org/2000/svg" width="1200" height="675" viewBox="0 0 1200 675" role="img" aria-label="Enlivex&apos;s RAIN Token Windfall: When a Biotech Balance Sheet Starts Looking">
  <defs>
    <linearGradient id="bg" x1="0" y1="0" x2="1" y2="1">
      <stop offset="0%" stop-color="#fbfefe"/>
      <stop offset="58%" stop-color="#edf7f7"/>
      <stop offset="100%" stop-color="#fff8ef"/>
    </linearGradient>
    <filter id="shadow" x="-20%" y="-20%" width="140%" height="140%">
      <feDropShadow dx="0" dy="18" stdDeviation="16" flood-color="#12313c" flood-opacity="0.12"/>
    </filter>
    <filter id="soft" x="-20%" y="-20%" width="140%" height="140%">
      <feDropShadow dx="0" dy="10" stdDeviation="9" flood-color="#12313c" flood-opacity="0.10"/>
    </filter>
  </defs>
  <style>
    .label{font:800 20px Inter,Arial,sans-serif;letter-spacing:.16em;text-transform:uppercase;fill:#a45f2b}
    .title{font:850 43px Inter,Arial,sans-serif;fill:#14191d}
    .subtitle{font:650 22px Inter,Arial,sans-serif;fill:#536671}
    .point{font:800 24px Inter,Arial,sans-serif;fill:#173843}
    .small{font:750 17px Inter,Arial,sans-serif;fill:#6d7a83}
  </style>
  <rect width="1200" height="675" fill="url(#bg)"/>
  <path d="M55 555 C237 464 382 524 535 568 C734 626 891 508 1140 550" fill="none" stroke="#cfe7ea" stroke-width="5" opacity=".85"/>
  <path d="M765 86 C918 28 1065 72 1126 216 C1195 376 1064 566 886 547 C736 531 667 405 697 269 C716 181 741 117 765 86Z" fill="#265f73" opacity=".08"/>
  <g filter="url(#shadow)">
    <rect x="48" y="46" width="650" height="580" rx="28" fill="#fff" opacity=".96"/>
  </g>
  <text x="76" y="102" class="label">Drugnews English</text>
  <text x="76" y="154" class="title" text-anchor="start">Enlivex&apos;s RAIN Token</text>
<text x="76" y="203" class="title" text-anchor="start">Windfall: When a Biotech</text>
<text x="76" y="252" class="title" text-anchor="start">Balance Sheet Starts Looking</text>
  <text x="76" y="318" class="subtitle" text-anchor="start">Enlivex&apos;s paper gain from RAIN tokens shows how</text>
<text x="76" y="348" class="subtitle" text-anchor="start">fragile biotech business models can create unusual</text>
  <g filter="url(#soft)">
    <rect x="76" y="388" width="552" height="216" rx="24" fill="#f5faf9" stroke="#d8e5e8"/>
  </g>
  <g>
      <circle cx="104" cy="427" r="10" fill="#265f73"/>
      <path d="M99 427 l4 5 l9 -13" fill="none" stroke="#fff" stroke-width="3" stroke-linecap="round" stroke-linejoin="round"/>
      <text x="128" y="435" class="point">Enlivex</text>
    </g>
<g>
      <circle cx="104" cy="469" r="10" fill="#265f73"/>
      <path d="M99 469 l4 5 l9 -13" fill="none" stroke="#fff" stroke-width="3" stroke-linecap="round" stroke-linejoin="round"/>
      <text x="128" y="477" class="point">RAIN token</text>
    </g>
<g>
      <circle cx="104" cy="511" r="10" fill="#265f73"/>
      <path d="M99 511 l4 5 l9 -13" fill="none" stroke="#fff" stroke-width="3" stroke-linecap="round" stroke-linejoin="round"/>
      <text x="128" y="519" class="point">Biotech treasury</text>
    </g>
<g>
      <circle cx="104" cy="553" r="10" fill="#265f73"/>
      <path d="M99 553 l4 5 l9 -13" fill="none" stroke="#fff" stroke-width="3" stroke-linecap="round" stroke-linejoin="round"/>
      <text x="128" y="561" class="point">Crypto</text>
    </g>
  <text x="76" y="600" class="small">Drugnews | Biotech business analysis</text>
  <g filter="url(#soft)">
    <g transform="translate(765 182) scale(1.03)">
    <rect x="10" y="24" width="260" height="180" rx="24" fill="#fff" stroke="#cadbe2" stroke-width="5"/>
    <path d="M48 156 h34v28H48zM104 126h34v58h-34zM160 92h34v92h-34z" fill="#265f73" opacity=".28" stroke="#265f73" stroke-width="4"/>
    <path d="M44 76 c54 28 93 20 146-34" fill="none" stroke="#265f73" stroke-width="9" stroke-linecap="round"/>
    <path d="M184 42 h42v42" fill="none" stroke="#265f73" stroke-width="9" stroke-linecap="round"/>
  </g><g transform="translate(928 300) scale(0.62)">
    <rect x="34" y="0" width="76" height="24" rx="8" fill="#b8cbd3" stroke="#7e99a7" stroke-width="4"/>
    <path d="M44 24 v34 c-18 19-26 47-26 86v106c0 18 14 32 32 32h94c18 0 32-14 32-32v-106c0-39-8-67-26-86V24z" fill="#fff" stroke="#265f73" stroke-width="7"/>
    <path d="M24 180 c38 30 104 32 146 2v67c0 12-9 21-21 21h-104c-12 0-21-9-21-21z" fill="#265f73" opacity=".18"/>
    <path d="M52 84 c36-22 74-20 104 0" fill="none" stroke="#d4e3e8" stroke-width="8" stroke-linecap="round"/>
  </g>
  </g>
</svg>
